Coordinates
version=1
nRows=121
nColumns=3
inDegrees=yes

Units are S.I. units (second, meters, Newtons, ...)
If the header above contains a line with 'inDegrees', this indicates whether rotational values are in degrees (yes) or radians (no).

endheader
time	r_shoulder_elev	r_elbow_flex
      0.000000000000	     -1.795331536772	      3.312737780980
      0.008333333000	     -1.789832764283	      3.320211395558
      0.016666667000	     -1.784269141597	      3.328966173375
      0.025000000000	     -1.777547974129	      3.339046809886
      0.033333333000	     -1.770095571263	      3.352033415783
      0.041666667000	     -1.759950260097	      3.366993734399
      0.050000000000	     -1.747453331807	      3.385135713157
      0.058333333000	     -1.732327190367	      3.406854380489
      0.066666667000	     -1.714360207002	      3.432450406577
      0.075000000000	     -1.693415138963	      3.462123770174
      0.083333333000	     -1.669424680725	      3.495980003148
      0.091666667000	     -1.642383629760	      3.534041062138
      0.100000000000	     -1.612338502413	      3.576259683513
      0.108333333000	     -1.579375500559	      3.622535906846
      0.116666667000	     -1.543607836581	      3.672734383802
      0.125000000000	     -1.505163371014	      3.726701129301
      0.133333333000	     -1.464173408511	      3.784278538036
      0.141666667000	     -1.420763352265	      3.845317734093
      0.150000000000	     -1.375045671892	      3.909687653624
      0.158333333000	     -1.327115417029	      3.977280568736
      0.166666667000	     -1.277048270253	      4.048014126451
      0.175000000000	     -1.224900912701	      4.121830243488
      0.183333333000	     -1.170713317922	      4.198691453127
      0.191666667000	     -1.114512443861	      4.278575449402
      0.200000000000	     -1.056316778439	      4.361468630843
      0.208333333000	     -0.996141156570	      4.447359452345
      0.216666667000	     -0.934001353426	      4.536232271481
      0.225000000000	     -0.869918044218	      4.628062267527
      0.233333333000	     -0.803919852298	      4.722811790660
      0.241666667000	     -0.736045345327	      4.820428313714
      0.250000000000	     -0.666343972428	      4.920843966633
      0.258333333000	     -0.594876041973	      5.023976498996
      0.266666667000	     -0.521711933059	      5.129731340419
      0.275000000000	     -0.446930780098	      5.238004404698
      0.283333333000	     -0.370618886236	      5.348685246075
      0.291666667000	     -0.292868092668	      5.461660198665
      0.300000000000	     -0.213774305640	      5.576815191670
      0.308333333000	     -0.133436318666	      5.694038013340
      0.316666667000	     -0.051954980842	      5.813219907014
      0.325000000000	      0.030567259824	      5.934256460945
      0.333333333000	      0.114026519640	      6.057047830609
      0.341666667000	      0.198317389062	      6.181498421511
      0.350000000000	      0.283332736784	      6.307516143428
      0.358333333000	      0.368963480914	      6.435011426341
      0.366666667000	      0.455098426111	      6.563896099872
      0.375000000000	      0.541624228814	      6.694082279948
      0.383333333000	      0.628425525937	      6.825481331158
      0.391666667000	      0.715385229553	      6.958002969163
      0.400000000000	      0.802384985133	      7.091554504748
      0.408333333000	      0.889305720768	      7.226040209778
      0.416666667000	      0.976028297168	      7.361360854824
      0.425000000000	      1.062434177938	      7.497413312762
      0.433333333000	      1.148406455693	      7.634090870817
      0.441666667000	      1.233830812468	      7.771283590383
      0.450000000000	      1.318596035582	      7.908878167506
      0.458333333000	      1.402594462462	      8.046757885700
      0.466666667000	      1.485722348905	      8.184802681114
      0.475000000000	      1.567880164947	      8.322889313326
      0.483333333000	      1.648972796557	      8.460891648476
      0.491666667000	      1.728909687329	      8.598681067387
      0.500000000000	      1.807604881176	      8.736126924507
      0.508333333000	      1.884977021605	      8.873097154835
      0.516666667000	      1.960949279875	      9.009458907416
      0.525000000000	      2.035449238484	      9.145079250659
      0.533333333000	      2.108408753428	      9.279825919377
      0.541666667000	      2.179763785715	      9.413568069454
      0.550000000000	      2.249454240390	      9.546177016335
      0.558333333000	      2.317423797644	      9.677526956649
      0.566666667000	      2.383619797813	      9.807495646630
      0.575000000000	      2.447993136373	      9.935964991287
      0.583333333000	      2.510498209596	     10.062821576831
      0.591666667000	      2.571092938206	     10.187957098395
      0.600000000000	      2.629739061886	     10.311269219626
      0.608333333000	      2.686402494173	     10.432662324135
      0.616666667000	      2.741053427093	     10.552047568045
      0.625000000000	      2.793666448008	     10.669342733084
      0.633333333000	      2.844220695185	     10.784471948039
      0.641666667000	      2.892699987700	     10.897365130581
      0.650000000000	      2.939092962003	     11.007957295966
      0.658333333000	      2.983393177322	     11.116187637232
      0.666666667000	      3.025599241369	     11.221998532793
      0.675000000000	      3.065714917381	     11.325334480545
      0.683333333000	      3.103749287274	     11.426141148440
      0.691666667000	      3.139716935810	     11.524364621581
      0.700000000000	      3.173638216764	     11.619950998674
      0.708333333000	      3.205539553540	     11.712846439542
      0.716666667000	      3.235453783478	     11.802997734988
      0.725000000000	      3.263420494802	     11.890353421766
      0.733333333000	      3.289486291434	     11.974865364045
      0.741666667000	      3.313704952076	     12.056490718878
      0.750000000000	      3.336137365811	     12.135194032300
      0.758333333000	      3.356851233176	     12.210949276620
      0.766666667000	      3.375920438005	     12.283741498205
      0.775000000000	      3.393424130451	     12.353567881435
      0.783333333000	      3.409445487982	     12.420437937282
      0.791666667000	      3.424070248419	     12.484372719727
      0.800000000000	      3.437385055711	     12.545402952986
      0.808333333000	      3.449475785735	     12.603566249768
      0.816666667000	      3.460425916051	     12.658903466305
      0.825000000000	      3.470315115168	     12.711454653583
      0.833333333000	      3.479218127233	     12.761254899102
      0.841666667000	      3.487204054073	     12.808330580926
      0.850000000000	      3.494336086030	     12.852696505110
      0.858333333000	      3.500671635917	     12.894354307231
      0.866666667000	      3.506807990087	     12.933011433176
      0.875000000000	      3.511526535404	     12.969313590639
      0.883333333000	      3.515721930022	     13.002766619458
      0.891666667000	      3.519293651661	     13.033421241852
      0.900000000000	      3.522304360211	     13.061240230406
      0.908333333000	      3.524789967234	     13.086213557767
      0.916666667000	      3.526790090621	     13.108351678835
      0.925000000000	      3.528343772391	     13.127696386102
      0.933333333000	      3.529490276324	     13.144328443336
      0.941666667000	      3.530269107487	     13.158374222961
      0.950000000000	      3.530720205006	     13.170010532476
      0.958333333000	      3.531607520721	     13.178669477293
      0.966666667000	      3.531000392405	     13.186900684914
      0.975000000000	      3.532162208759	     13.188836512755
      0.983333333000	      3.530041756953	     13.197819166565
      0.991666667000	      3.530724736442	     13.198602487739
      1.000000000000	      3.528829205254	     13.205557205767
